<svg width="2875" height="988" viewBox="0 0 2875 988" fill="none" xmlns="http://www.w3.org/2000/svg">
<g clip-path="url(#clip0_8944_64327)">
<path d="M2726.97 3.67969H147.206C67.9385 3.67969 3.67969 67.9385 3.67969 147.206V840.794C3.67969 920.061 67.9385 984.32 147.206 984.32H2726.97C2806.24 984.32 2870.5 920.061 2870.5 840.794V147.206C2870.5 67.9385 2806.24 3.67969 2726.97 3.67969Z" fill="white" stroke="black" stroke-width="7.36033"/>
<path d="M832.065 559.183C842.849 540.814 869.633 540.814 880.299 559.183L994.901 754.965C1005.69 773.335 992.175 796.207 970.724 796.207H741.522C720.071 796.207 706.679 773.335 717.345 754.965L831.946 559.183H832.065Z" fill="black"/>
<path d="M762.844 428.817C773.273 410.566 773.273 388.049 762.844 369.679L668.864 205.777C658.316 187.408 632.006 187.408 621.459 205.777L306.928 754.844C296.38 773.213 309.535 796.204 330.63 796.204H518.472C539.448 796.204 558.766 784.946 569.195 766.695L762.725 428.817H762.844Z" fill="black"/>
<path d="M1293.06 667.221V694.63H1276.73C1257.2 694.63 1249.89 686.18 1249.6 671.836C1239.66 686.393 1224.18 696.334 1200.89 696.334C1168.51 696.334 1146 680.286 1146 652.593C1146 621.633 1167.87 604.733 1209.34 604.733H1246.41V595.715C1246.41 579.099 1234.48 568.873 1214.03 568.873C1195.64 568.873 1183.42 577.607 1181.08 590.744H1149.83C1153.31 561.843 1177.81 543.452 1215.52 543.452C1253.22 543.452 1277.65 562.412 1277.65 597.703V657.492C1277.65 665.09 1280.28 667.15 1286.95 667.15H1293.06V667.221ZM1246.41 628.095H1207.92C1188.68 628.095 1177.88 635.409 1177.88 650.534C1177.88 663.102 1188.39 671.836 1205.29 671.836C1231 671.836 1246.41 656.356 1246.41 633.917V628.095Z" fill="black"/>
<path d="M1361.64 694.63L1305.05 545.228H1338.92L1381.53 660.759L1423.85 545.228H1457.08L1400.2 694.63H1361.72H1361.64Z" fill="black"/>
<path d="M1618 667.221V694.63H1601.67C1582.15 694.63 1574.83 686.18 1574.55 671.836C1564.61 686.393 1549.13 696.334 1525.84 696.334C1493.46 696.334 1470.95 680.286 1470.95 652.593C1470.95 621.633 1492.82 604.733 1534.29 604.733H1571.35V595.715C1571.35 579.099 1559.42 568.873 1538.97 568.873C1520.58 568.873 1508.37 577.607 1506.02 590.744H1474.78C1478.26 561.843 1502.76 543.452 1540.46 543.452C1578.17 543.452 1602.6 562.412 1602.6 597.703V657.492C1602.6 665.09 1605.22 667.15 1611.9 667.15H1618V667.221ZM1571.28 628.095H1532.79C1513.55 628.095 1502.76 635.409 1502.76 650.534C1502.76 663.102 1513.27 671.836 1530.17 671.836C1555.87 671.836 1571.28 656.356 1571.28 633.917V628.095Z" fill="black"/>
<path d="M1762.28 666.94V694.634H1640.93V666.94H1686.02V520.094L1640.93 535.006V507.17L1679.48 492.4H1717.54V667.011H1762.35L1762.28 666.94Z" fill="black"/>
<path d="M1930.37 667.221V694.63H1914.04C1894.51 694.63 1887.19 686.18 1886.91 671.836C1876.97 686.393 1861.49 696.334 1838.2 696.334C1805.82 696.334 1783.31 680.286 1783.31 652.593C1783.31 621.633 1805.18 604.733 1846.65 604.733H1883.72V595.715C1883.72 579.099 1871.79 568.873 1851.34 568.873C1832.94 568.873 1820.73 577.607 1818.39 590.744H1787.14C1790.62 561.843 1815.12 543.452 1852.83 543.452C1890.53 543.452 1914.96 562.412 1914.96 597.703V657.492C1914.96 665.09 1917.59 667.15 1924.26 667.15H1930.37V667.221ZM1883.72 628.095H1845.23C1825.98 628.095 1815.19 635.409 1815.19 650.534C1815.19 663.102 1825.7 671.836 1842.6 671.836C1868.31 671.836 1883.72 656.356 1883.72 633.917V628.095Z" fill="black"/>
<path d="M2099.09 609.419V694.63H2067.28V612.331C2067.28 585.773 2055.92 571.217 2033.41 571.217C2009.76 571.217 1995.49 588.401 1995.49 617.301V694.63H1963.96V545.227H1991.37L1994.85 564.755C2003.87 553.109 2017.93 543.452 2040.65 543.452C2072.46 543.452 2099.02 560.636 2099.02 609.419H2099.09Z" fill="black"/>
<path d="M2137.79 620.213C2137.79 574.128 2167.25 543.452 2212.2 543.452C2250.41 543.452 2274.34 564.755 2280.16 598.626H2247.21C2243.09 581.087 2230.59 570.294 2211.64 570.294C2186.57 570.294 2169.88 591.028 2169.88 620.213C2169.88 649.397 2186.5 669.493 2211.64 669.493C2230.31 669.493 2243.16 658.416 2246.93 641.16H2280.16C2274.62 675.032 2249.2 696.334 2211.28 696.334C2166.33 696.334 2137.71 666.866 2137.71 620.213H2137.79Z" fill="black"/>
<path d="M2454.62 609.421V694.632H2422.8V612.048C2422.8 586.343 2411.44 571.218 2388.08 571.218C2364.72 571.218 2349.59 588.757 2349.59 617.019V694.632H2318.07V490.41H2349.59V564.259C2359.82 551.407 2375.3 543.525 2395.4 543.525C2430.4 543.525 2454.62 564.259 2454.62 609.492V609.421Z" fill="black"/>
<path d="M2524.84 627.248V628.739C2525.69 654.089 2541.46 670.776 2565.96 670.776C2584.63 670.776 2598.9 661.119 2603.02 644.503H2634.55C2629.3 673.972 2604.51 696.41 2567.73 696.41C2521.08 696.41 2491.89 666.09 2491.89 620.289C2491.89 574.488 2521.08 543.528 2564.54 543.528C2607.99 543.528 2636.33 570.938 2637.18 614.75C2637.18 617.946 2636.89 622.916 2636.33 627.319H2524.84V627.248ZM2525.98 603.602H2604.44C2601.82 581.447 2586.62 568.878 2564.75 568.878C2545.22 568.878 2528.25 582.299 2525.91 603.602H2525.98Z" fill="black"/>
<path d="M1278.66 238.532H1349.09C1363.01 238.532 1374.23 242.471 1382.76 250.347C1391.28 258.153 1395.54 269.153 1395.54 283.345C1395.54 295.551 1391.74 306.196 1384.14 315.279C1376.54 324.291 1364.86 328.798 1349.09 328.798H1299.86V394.9H1278.66V238.532ZM1374.13 283.452C1374.13 271.956 1369.87 264.15 1361.34 260.034C1356.65 257.834 1350.23 256.734 1342.06 256.734H1299.86V310.915H1342.06C1351.58 310.915 1359.28 308.892 1365.18 304.847C1371.14 300.802 1374.13 293.671 1374.13 283.452Z" fill="black"/>
<path d="M1460.54 382.553C1473.26 382.553 1481.96 377.763 1486.64 368.183C1491.4 358.532 1493.78 347.817 1493.78 336.037C1493.78 325.392 1492.08 316.735 1488.67 310.064C1483.27 299.562 1473.97 294.31 1460.75 294.31C1449.03 294.31 1440.51 298.781 1435.18 307.722C1429.86 316.664 1427.19 327.45 1427.19 340.082C1427.19 352.216 1429.86 362.329 1435.18 370.419C1440.51 378.508 1448.96 382.553 1460.54 382.553ZM1461.29 277.598C1475.99 277.598 1488.42 282.495 1498.58 292.288C1508.74 302.081 1513.81 316.486 1513.81 335.505C1513.81 353.884 1509.34 369.07 1500.39 381.063C1491.44 393.056 1477.55 399.052 1458.73 399.052C1443.03 399.052 1430.57 393.766 1421.33 383.192C1412.1 372.548 1407.48 358.284 1407.48 340.401C1407.48 321.241 1412.35 305.984 1422.08 294.63C1431.81 283.276 1444.88 277.598 1461.29 277.598Z" fill="black"/>
<path d="M1541.2 280.897L1563.15 370.737L1585.42 280.897H1606.94L1629.31 370.205L1652.65 280.897H1671.83L1638.69 394.9H1618.77L1595.54 306.657L1573.06 394.9H1553.13L1520.21 280.897H1541.2Z" fill="black"/>
<path d="M1733.2 278.343C1741.3 278.343 1749.15 280.259 1756.75 284.091C1764.35 287.852 1770.14 292.748 1774.12 298.78C1777.95 304.528 1780.51 311.234 1781.79 318.898C1782.92 324.149 1783.49 332.523 1783.49 344.019H1699.85C1700.21 355.586 1702.94 364.882 1708.06 371.908C1713.17 378.862 1721.09 382.339 1731.82 382.339C1741.83 382.339 1749.82 379.04 1755.79 372.44C1759.2 368.608 1761.61 364.173 1763.03 359.134H1781.89C1781.4 363.321 1779.73 368.005 1776.89 373.185C1774.12 378.295 1770.99 382.481 1767.51 385.746C1761.69 391.423 1754.48 395.255 1745.88 397.242C1741.26 398.377 1736.04 398.945 1730.22 398.945C1716.01 398.945 1703.97 393.8 1694.1 383.51C1684.23 373.15 1679.29 358.673 1679.29 340.081C1679.29 321.772 1684.26 306.905 1694.21 295.48C1704.15 284.055 1717.15 278.343 1733.2 278.343ZM1763.78 328.798C1763 320.495 1761.19 313.86 1758.35 308.892C1753.09 299.667 1744.32 295.054 1732.03 295.054C1723.22 295.054 1715.83 298.248 1709.87 304.635C1703.9 310.95 1700.74 319.005 1700.39 328.798H1763.78Z" fill="black"/>
<path d="M1803.31 280.897H1821.53V300.59C1823.02 296.758 1826.68 292.109 1832.51 286.645C1838.33 281.11 1845.04 278.343 1852.64 278.343C1853 278.343 1853.6 278.378 1854.46 278.449C1855.31 278.52 1856.76 278.662 1858.82 278.875V299.099C1857.69 298.886 1856.62 298.745 1855.63 298.674C1854.7 298.603 1853.67 298.567 1852.54 298.567C1842.88 298.567 1835.45 301.69 1830.27 307.934C1825.08 314.108 1822.49 321.24 1822.49 329.33V394.9H1803.31V280.897Z" fill="black"/>
<path d="M1918.6 278.343C1926.7 278.343 1934.55 280.259 1942.15 284.091C1949.75 287.852 1955.54 292.748 1959.51 298.78C1963.35 304.528 1965.91 311.234 1967.19 318.898C1968.32 324.149 1968.89 332.523 1968.89 344.019H1885.25C1885.61 355.586 1888.34 364.882 1893.46 371.908C1898.57 378.862 1906.49 382.339 1917.22 382.339C1927.23 382.339 1935.22 379.04 1941.19 372.44C1944.6 368.608 1947.01 364.173 1948.43 359.134H1967.29C1966.8 363.321 1965.13 368.005 1962.28 373.185C1959.51 378.295 1956.39 382.481 1952.91 385.746C1947.08 391.423 1939.87 395.255 1931.28 397.242C1926.66 398.377 1921.44 398.945 1915.62 398.945C1901.41 398.945 1889.37 393.8 1879.5 383.51C1869.63 373.15 1864.69 358.673 1864.69 340.081C1864.69 321.772 1869.66 306.905 1879.6 295.48C1889.55 284.055 1902.55 278.343 1918.6 278.343ZM1949.18 328.798C1948.4 320.495 1946.59 313.86 1943.75 308.892C1938.49 299.667 1929.72 295.054 1917.43 295.054C1908.62 295.054 1901.23 298.248 1895.27 304.635C1889.3 310.95 1886.14 319.005 1885.78 328.798H1949.18Z" fill="black"/>
<path d="M2000.33 339.229C2000.33 351.435 2002.92 361.654 2008.1 369.885C2013.29 378.117 2021.6 382.233 2033.04 382.233C2041.91 382.233 2049.2 378.436 2054.88 370.843C2060.63 363.179 2063.51 352.215 2063.51 337.952C2063.51 323.546 2060.56 312.902 2054.66 306.018C2048.77 299.064 2041.49 295.587 2032.82 295.587C2023.16 295.587 2015.31 299.277 2009.28 306.657C2003.31 314.037 2000.33 324.895 2000.33 339.229ZM2029.2 278.875C2037.94 278.875 2045.25 280.72 2051.15 284.41C2054.56 286.539 2058.43 290.264 2062.76 295.587V238H2081.19V394.9H2063.93V379.04C2059.46 386.065 2054.17 391.139 2048.06 394.261C2041.95 397.384 2034.95 398.945 2027.07 398.945C2014.35 398.945 2003.34 393.623 1994.04 382.978C1984.73 372.263 1980.08 358.034 1980.08 340.294C1980.08 323.688 1984.31 309.318 1992.76 297.183C2001.29 284.978 2013.43 278.875 2029.2 278.875Z" fill="black"/>
<path d="M2160.15 238H2178.8V294.735C2182.99 289.271 2188 285.12 2193.82 282.281C2199.65 279.372 2205.97 277.917 2212.79 277.917C2226.99 277.917 2238.5 282.813 2247.31 292.606C2256.19 302.328 2260.63 316.698 2260.63 335.716C2260.63 353.741 2256.26 368.714 2247.52 380.636C2238.79 392.558 2226.67 398.519 2211.19 398.519C2202.52 398.519 2195.21 396.426 2189.24 392.239C2185.69 389.755 2181.89 385.781 2177.84 380.317V394.9H2160.15V238ZM2210.02 381.594C2220.39 381.594 2228.13 377.478 2233.25 369.247C2238.43 361.015 2241.02 350.158 2241.02 336.675C2241.02 324.682 2238.43 314.747 2233.25 306.87C2228.13 298.993 2220.57 295.054 2210.55 295.054C2201.81 295.054 2194.14 298.283 2187.54 304.741C2181 311.199 2177.73 321.843 2177.73 336.675C2177.73 347.39 2179.08 356.083 2181.78 362.754C2186.83 375.314 2196.24 381.594 2210.02 381.594Z" fill="black"/>
<path d="M2350.02 280.897H2371.23C2368.53 288.206 2362.53 304.883 2353.22 330.926C2346.26 350.512 2340.43 366.479 2335.75 378.827C2324.67 407.922 2316.85 425.663 2312.31 432.049C2307.76 438.436 2299.95 441.629 2288.87 441.629C2286.17 441.629 2284.07 441.523 2282.58 441.31C2281.16 441.097 2279.38 440.707 2277.25 440.139V422.682C2280.59 423.605 2283.01 424.172 2284.5 424.385C2285.99 424.598 2287.3 424.705 2288.44 424.705C2291.99 424.705 2294.58 424.101 2296.22 422.895C2297.92 421.76 2299.34 420.34 2300.48 418.637C2300.84 418.07 2302.11 415.16 2304.32 409.909C2306.52 404.657 2308.12 400.754 2309.11 398.2L2266.92 280.897H2288.65L2319.23 373.717L2350.02 280.897Z" fill="black"/>
</g>
<defs>
<clipPath id="clip0_8944_64327">
<rect width="2875" height="988" fill="white"/>
</clipPath>
</defs>
</svg>
